<svg width="440.727" height="91.001" viewBox="1.6733323003497365 -12.200526179530002 446.7266679503911 97.00062046153592" xmlns="http://www.w3.org/2000/svg"><g id="svgGroup" stroke-linecap="round" fill-rule="evenodd" font-size="9pt" stroke="#000" stroke-width="0.25mm" fill="#000" style="stroke:#000;stroke-width:0.25mm;fill:#000"><path d="M 302.727 15.7 L 308.527 9.2 Q 304.827 8.6 300.827 8.25 A 94.033 94.033 0 0 0 293.597 7.906 A 104.284 104.284 0 0 0 292.527 7.9 Q 286.627 7.9 279.677 8.9 Q 272.727 9.9 265.877 12 A 65.351 65.351 0 0 0 257.025 15.408 A 56.583 56.583 0 0 0 253.377 17.3 A 33.594 33.594 0 0 0 248.148 20.919 A 26.511 26.511 0 0 0 244.327 24.9 Q 240.927 29.3 240.927 35 Q 240.927 37.98 241.949 40.026 A 7.376 7.376 0 0 0 242.677 41.2 Q 244.427 43.5 247.077 44.55 A 14.481 14.481 0 0 0 252.089 45.596 A 13.865 13.865 0 0 0 252.427 45.6 A 16.407 16.407 0 0 0 255.974 45.235 A 11.953 11.953 0 0 0 260.027 43.55 A 16.725 16.725 0 0 0 262.592 41.485 A 12.667 12.667 0 0 0 264.677 38.8 Q 266.227 36.1 266.227 34 Q 266.227 33.414 266.927 33.319 A 2.224 2.224 0 0 1 267.227 33.3 A 0.833 0.833 0 0 1 268.021 33.779 Q 268.227 34.175 268.227 34.9 A 11.244 11.244 0 0 1 267.391 39.273 A 10.652 10.652 0 0 1 265.727 42 Q 263.227 45 259.477 46.6 Q 255.727 48.2 251.927 48.2 A 15.753 15.753 0 0 1 247.071 47.406 A 19.929 19.929 0 0 1 244.777 46.5 Q 241.127 44.8 238.727 41.4 A 12.857 12.857 0 0 1 236.623 36.318 A 17.75 17.75 0 0 1 236.327 33 Q 236.327 27 239.727 22.35 A 27.333 27.333 0 0 1 245.489 16.594 A 34.184 34.184 0 0 1 248.827 14.4 A 58.31 58.31 0 0 1 257.692 10.25 A 68.8 68.8 0 0 1 261.527 8.95 Q 268.527 6.8 275.677 5.8 A 105.469 105.469 0 0 1 284.075 4.953 A 85.943 85.943 0 0 1 289.127 4.8 Q 294.927 4.8 300.477 5.35 A 91.217 91.217 0 0 1 307.801 6.366 A 77.957 77.957 0 0 1 310.927 7 A 23.64 23.64 0 0 1 313.235 5.248 A 21.116 21.116 0 0 1 313.777 4.9 Q 315.227 4 316.427 3.5 Q 317.445 3.037 318.121 3.003 A 2.09 2.09 0 0 1 318.227 3 A 1.568 1.568 0 0 1 318.516 3.024 Q 319.027 3.121 319.027 3.6 Q 319.027 3.892 317.984 4.658 A 14.733 14.733 0 0 1 317.927 4.7 A 48.915 48.915 0 0 0 316.856 5.546 Q 316.372 5.941 315.951 6.308 A 28.355 28.355 0 0 0 315.677 6.55 A 15.662 15.662 0 0 0 315.297 6.9 Q 314.765 7.409 314.576 7.712 A 1.094 1.094 0 0 0 314.527 7.8 A 65.041 65.041 0 0 1 321.908 10.129 Q 325.551 11.537 328.519 13.288 A 34.387 34.387 0 0 1 331.077 14.95 A 19.043 19.043 0 0 1 334.391 17.915 Q 336.514 20.361 337.152 23.193 A 11.365 11.365 0 0 1 337.427 25.7 Q 337.427 30.8 333.927 34.65 A 21.938 21.938 0 0 1 328.407 38.993 A 28.306 28.306 0 0 1 324.777 40.7 A 37.755 37.755 0 0 1 313.126 43.179 A 42.266 42.266 0 0 1 312.727 43.2 A 54.384 54.384 0 0 1 319.201 45.725 Q 323.817 47.897 327.077 50.7 Q 332.427 55.3 332.427 62.4 Q 332.427 67.7 329.377 72 Q 326.327 76.3 321.277 79.35 A 43.597 43.597 0 0 1 310.32 84.024 A 48.226 48.226 0 0 1 310.227 84.05 A 44.775 44.775 0 0 1 298.511 85.7 A 42.214 42.214 0 0 1 298.327 85.7 A 78.173 78.173 0 0 1 290.601 85.336 Q 285.899 84.869 281.877 83.8 Q 274.727 81.9 267.027 78.4 A 36.237 36.237 0 0 1 255.243 84.401 A 33.463 33.463 0 0 1 245.927 85.7 Q 243.727 85.7 240.877 85.25 Q 238.027 84.8 235.377 83.7 Q 232.727 82.6 230.977 80.55 A 7.234 7.234 0 0 1 229.324 76.807 A 9.796 9.796 0 0 1 229.227 75.4 A 8.22 8.22 0 0 1 230.822 70.569 A 12.262 12.262 0 0 1 232.527 68.65 A 10.816 10.816 0 0 1 236.925 66.232 Q 238.553 65.758 240.496 65.64 A 21.87 21.87 0 0 1 241.827 65.6 A 23.544 23.544 0 0 1 247.966 66.382 A 21.279 21.279 0 0 1 250.027 67.05 Q 253.827 68.5 257.477 70.55 Q 261.127 72.6 265.027 74.6 A 48.662 48.662 0 0 0 270.383 68.472 A 63.175 63.175 0 0 0 274.177 62.7 A 285.545 285.545 0 0 0 279.883 52.441 A 334.566 334.566 0 0 0 282.477 47.45 Q 286.627 39.3 291.477 31.1 Q 296.327 22.9 302.727 15.7 Z M 25.571 89.978 A 57.627 57.627 0 0 0 36.627 91 Q 44.827 91 52.877 88.95 A 61.948 61.948 0 0 0 57.274 87.659 A 51.955 51.955 0 0 0 67.327 83.1 Q 72.827 79.8 77.427 75.55 A 45.631 45.631 0 0 0 79.747 73.25 A 38.359 38.359 0 0 0 84.877 66.45 Q 87.727 61.6 87.727 56.8 A 13.992 13.992 0 0 0 87.199 53 A 16.551 16.551 0 0 0 85.327 48.8 Q 83.752 46.241 80.842 43.897 A 33.627 33.627 0 0 0 77.427 41.5 A 57.765 57.765 0 0 0 74.689 39.885 A 70.529 70.529 0 0 0 69.627 37.35 Q 65.327 35.4 61.127 33.45 Q 56.927 31.5 53.627 29.5 A 27.59 27.59 0 0 1 51.981 28.408 Q 50.721 27.502 49.753 26.562 A 12.797 12.797 0 0 1 47.977 24.45 A 11.797 11.797 0 0 1 46.877 22.387 A 8.432 8.432 0 0 1 46.227 19.2 A 9.897 9.897 0 0 1 47.743 13.994 A 14.765 14.765 0 0 1 49.877 11.3 A 21.41 21.41 0 0 1 53.425 8.407 A 25.304 25.304 0 0 1 59.027 5.7 Q 63.527 4.1 67.377 3.4 Q 71.227 2.7 74.427 2.7 Q 77.599 2.7 80.129 3.262 A 15.814 15.814 0 0 1 83.627 4.45 A 20.054 20.054 0 0 1 84.265 4.775 Q 87.386 6.432 88.977 8.75 A 11.193 11.193 0 0 1 89.973 10.509 A 8.238 8.238 0 0 1 90.727 13.9 Q 90.727 16.4 89.177 18.3 A 5.996 5.996 0 0 1 86.596 20.119 A 8.849 8.849 0 0 1 84.627 20.6 A 8.413 8.413 0 0 0 84.575 20.604 Q 83.314 20.709 82.677 21.15 A 3.254 3.254 0 0 0 82.504 21.277 Q 82.227 21.498 82.111 21.706 A 0.6 0.6 0 0 0 82.027 22 A 0.571 0.571 0 0 0 82.18 22.411 Q 82.455 22.7 83.227 22.7 A 4.346 4.346 0 0 0 83.673 22.678 A 3.246 3.246 0 0 0 84.127 22.6 Q 86.327 22 87.927 21.15 A 23.059 23.059 0 0 0 88.732 20.702 A 19.798 19.798 0 0 0 90.827 19.3 A 12.327 12.327 0 0 0 92.273 17.889 A 8.339 8.339 0 0 0 94.427 12.3 A 9.132 9.132 0 0 0 94.028 9.625 A 10.623 10.623 0 0 0 92.627 6.75 A 11.281 11.281 0 0 0 90.263 4.231 A 14.558 14.558 0 0 0 87.427 2.5 A 17.791 17.791 0 0 0 84.66 1.359 A 22.898 22.898 0 0 0 81.177 0.55 A 44.291 44.291 0 0 0 79.607 0.336 A 49.967 49.967 0 0 0 73.727 0 Q 69.027 0 64.177 0.8 Q 59.327 1.6 55.227 3 A 32.951 32.951 0 0 0 55.19 3.013 A 29.624 29.624 0 0 0 46.777 7.45 A 27.333 27.333 0 0 0 44.488 9.39 A 21.896 21.896 0 0 0 40.877 13.8 A 16.357 16.357 0 0 0 40.139 15.133 A 13.139 13.139 0 0 0 38.727 21 Q 38.727 24.1 40.577 27.2 A 13.573 13.573 0 0 0 41.381 28.396 Q 43.208 30.827 46.427 33 A 36.487 36.487 0 0 0 49.249 34.726 A 47.841 47.841 0 0 0 52.927 36.55 Q 56.627 38.2 60.477 39.8 A 137.248 137.248 0 0 1 62.377 40.606 A 121.65 121.65 0 0 1 67.777 43.1 A 45.009 45.009 0 0 1 68.21 43.317 Q 71.379 44.921 73.627 46.7 A 18.612 18.612 0 0 1 75.781 48.659 A 14.071 14.071 0 0 1 78.277 52.3 Q 79.727 55.4 79.727 58.8 A 16.982 16.982 0 0 1 79.671 60.176 Q 79.206 65.898 74.877 71.7 A 34.67 34.67 0 0 1 69.369 77.504 A 43.433 43.433 0 0 1 61.727 82.6 A 45.547 45.547 0 0 1 58.239 84.223 A 52.613 52.613 0 0 1 49.777 86.9 Q 43.227 88.4 36.527 88.4 A 54.959 54.959 0 0 1 35.779 88.395 A 49.544 49.544 0 0 1 25.027 87.1 A 36.009 36.009 0 0 1 22.514 86.411 A 30.322 30.322 0 0 1 15.227 83.05 Q 10.927 80.3 8.377 76.05 A 17.259 17.259 0 0 1 6.35 70.908 A 22.855 22.855 0 0 1 5.827 65.9 Q 5.827 60.9 7.227 56 Q 8.627 51.1 11.427 46.8 Q 14.127 42.5 18.327 39.2 A 13.605 13.605 0 0 0 18.81 38.83 Q 19.529 38.252 19.739 37.876 A 0.58 0.58 0 0 0 19.827 37.6 Q 19.827 37.3 19.227 37.3 Q 18.927 37.3 18.277 37.4 A 5.269 5.269 0 0 0 18.15 37.421 Q 17.597 37.52 17.327 37.7 A 21.753 21.753 0 0 0 14.395 39.337 A 26.004 26.004 0 0 0 10.377 42.65 Q 7.127 45.9 4.777 49.95 Q 2.427 54 1.127 58.1 A 25.918 25.918 0 0 0 0.313 61.342 Q -0.091 63.593 0.027 65.6 A 28.008 28.008 0 0 0 0.265 67.944 A 21.836 21.836 0 0 0 5.527 79.55 Q 10.527 85.2 18.677 88.1 A 47.925 47.925 0 0 0 25.571 89.978 Z M 390.027 62.5 Q 392.327 57.3 393.977 54.05 Q 395.496 51.057 396.295 49.633 A 33.435 33.435 0 0 1 396.427 49.4 A 4.232 4.232 0 0 1 399.451 47.291 A 6.099 6.099 0 0 1 400.527 47.2 L 406.727 47.2 Q 405.027 48.5 403.677 50.05 Q 402.327 51.6 400.327 55.7 L 399.627 57.1 L 397.877 60.6 Q 396.827 62.7 395.777 64.9 A 175.484 175.484 0 0 0 395.038 66.466 Q 394.751 67.083 394.498 67.642 A 91.007 91.007 0 0 0 394.027 68.7 A 30.342 30.342 0 0 0 393.153 70.821 A 22.227 22.227 0 0 0 392.527 72.8 A 18.121 18.121 0 0 0 392.222 74.155 Q 392.027 75.225 392.027 76.1 A 7.975 7.975 0 0 0 392.108 77.29 Q 392.341 78.827 393.246 79.342 A 2.152 2.152 0 0 0 394.327 79.6 A 3.169 3.169 0 0 0 395.556 79.33 Q 396.661 78.866 397.927 77.6 Q 400.227 75.4 402.677 71.45 Q 405.127 67.5 407.427 63.1 Q 409.727 58.7 411.527 54.95 A 871.787 871.787 0 0 1 412.37 53.197 Q 413.552 50.75 414.227 49.4 Q 414.727 48.3 415.577 47.75 A 2.942 2.942 0 0 1 416.337 47.41 Q 416.71 47.298 417.164 47.246 A 7.57 7.57 0 0 1 418.027 47.2 L 424.127 47.2 A 5.934 5.934 0 0 1 423.649 47.624 Q 423.131 48.041 422.377 48.5 Q 421.564 48.995 420.776 50.039 A 11.897 11.897 0 0 0 420.127 51 Q 418.727 53.4 417.627 55.45 Q 416.784 57.02 415.473 59.791 A 251.447 251.447 0 0 0 414.627 61.6 A 690.054 690.054 0 0 0 414.398 62.115 Q 413.957 63.109 413.077 65.1 A 54.222 54.222 0 0 0 411.698 68.545 A 66.466 66.466 0 0 0 410.927 70.8 A 23.291 23.291 0 0 0 410.261 73.309 Q 409.927 74.955 409.927 76.4 Q 409.927 78 410.627 79 A 2.219 2.219 0 0 0 411.873 79.865 Q 412.339 80 412.927 80 A 7.083 7.083 0 0 0 416.473 79.021 A 10.341 10.341 0 0 0 418.277 77.7 A 24.357 24.357 0 0 0 421.547 74.065 A 29.583 29.583 0 0 0 422.877 72.1 A 49.873 49.873 0 0 0 425.047 68.252 A 40.128 40.128 0 0 0 426.227 65.7 Q 426.15 65.088 426.044 64.035 A 181.029 181.029 0 0 1 425.977 63.35 Q 425.827 61.8 425.827 60.7 A 34.387 34.387 0 0 1 426.165 55.741 Q 426.551 53.093 427.379 50.865 A 19.384 19.384 0 0 1 427.877 49.65 A 12.346 12.346 0 0 1 428.949 47.713 Q 429.624 46.733 430.409 46.121 A 4.625 4.625 0 0 1 433.327 45.1 Q 434.949 45.1 435.186 46.34 A 2.454 2.454 0 0 1 435.227 46.8 A 1.019 1.019 0 0 1 435.204 46.974 Q 435.123 47.391 434.756 48.579 A 83.438 83.438 0 0 1 434.577 49.15 Q 433.934 51.176 432.902 54.129 A 313.396 313.396 0 0 1 432.877 54.2 A 165.852 165.852 0 0 1 431.315 58.467 A 195.254 195.254 0 0 1 430.527 60.5 Q 429.227 63.8 427.927 66.7 A 5.618 5.618 0 0 0 428.443 68.283 A 4.775 4.775 0 0 0 429.327 69.5 A 3.712 3.712 0 0 0 431.762 70.587 A 4.967 4.967 0 0 0 432.127 70.6 A 4.457 4.457 0 0 0 434.529 69.877 Q 435.156 69.484 435.753 68.878 A 8.713 8.713 0 0 0 435.877 68.75 A 11.015 11.015 0 0 0 436.929 67.427 Q 437.957 65.934 439.033 63.605 A 47.621 47.621 0 0 0 439.527 62.5 A 2.352 2.352 0 0 1 439.961 62.537 Q 440.683 62.673 440.724 63.32 A 1.262 1.262 0 0 1 440.727 63.4 Q 439.364 66.806 437.53 69.052 A 14.515 14.515 0 0 1 436.877 69.8 A 8.541 8.541 0 0 1 435.131 71.251 A 6.199 6.199 0 0 1 431.827 72.2 A 5.073 5.073 0 0 1 429.398 71.634 Q 427.823 70.792 426.927 68.7 A 40.563 40.563 0 0 1 422.931 75.163 A 34.955 34.955 0 0 1 420.477 78.05 A 14.11 14.11 0 0 1 417.531 80.457 A 10.5 10.5 0 0 1 412.027 82 A 12.467 12.467 0 0 1 411.598 81.993 Q 411.258 81.981 410.977 81.95 Q 410.574 81.905 409.972 81.821 A 66.822 66.822 0 0 1 409.827 81.8 Q 407.357 81.306 406.4 79.104 A 5.616 5.616 0 0 1 406.377 79.05 A 12.254 12.254 0 0 1 405.43 74.524 A 14.056 14.056 0 0 1 405.427 74.2 Q 405.427 72.6 405.677 71.05 A 20.79 20.79 0 0 1 405.954 69.631 Q 406.115 68.941 406.314 68.339 A 12.749 12.749 0 0 1 406.327 68.3 A 72.988 72.988 0 0 1 405.581 69.592 Q 405.242 70.168 404.853 70.807 A 149.22 149.22 0 0 1 404.027 72.15 A 41.91 41.91 0 0 1 401.27 76.049 A 46.692 46.692 0 0 1 400.827 76.6 A 23.75 23.75 0 0 1 398.559 79.021 A 19.615 19.615 0 0 1 397.027 80.3 A 8.194 8.194 0 0 1 395.337 81.292 A 6.081 6.081 0 0 1 392.927 81.8 Q 390.827 81.8 389.027 80.6 Q 387.227 79.4 386.727 77.2 A 11.884 11.884 0 0 1 386.621 76.595 A 9.937 9.937 0 0 1 386.577 76.25 A 8.272 8.272 0 0 1 386.534 75.707 A 6.866 6.866 0 0 1 386.527 75.4 A 10.558 10.558 0 0 1 387.13 71.945 A 13.73 13.73 0 0 1 387.927 70.1 A 152.835 152.835 0 0 0 389.047 67.892 Q 390.039 65.9 391.227 63.4 A 4.211 4.211 0 0 1 390.873 63.386 Q 390.691 63.371 390.534 63.338 A 2.141 2.141 0 0 1 390.377 63.3 A 0.393 0.393 0 0 1 390.134 63.092 Q 390.027 62.888 390.027 62.5 Q 389.127 64.6 387.527 67.6 A 37.949 37.949 0 0 1 386.904 68.722 A 42.388 42.388 0 0 1 383.677 73.5 A 24.381 24.381 0 0 1 383.231 74.057 A 21.421 21.421 0 0 1 378.577 78.3 Q 375.727 80.2 372.427 80.2 A 5.826 5.826 0 0 1 371.21 80.081 A 3.427 3.427 0 0 1 368.727 78.2 A 9.132 9.132 0 0 1 368.043 76.354 A 10.768 10.768 0 0 1 367.727 73.7 Q 367.727 71.6 368.177 69.6 Q 368.627 67.6 369.127 66.4 A 6.934 6.934 0 0 0 369.143 66.4 Q 370.639 66.396 372.927 65.75 Q 375.227 65.1 377.527 64.1 Q 378.838 63.53 379.89 62.927 A 15.287 15.287 0 0 0 381.327 62 A 25.416 25.416 0 0 0 384.17 59.562 A 18.524 18.524 0 0 0 386.727 56.4 A 16.581 16.581 0 0 0 387.444 55.157 Q 387.971 54.139 388.263 53.183 A 7.802 7.802 0 0 0 388.627 50.9 A 7.923 7.923 0 0 0 388.626 50.768 Q 388.613 49.992 388.446 49.352 A 3.575 3.575 0 0 0 386.827 47.1 A 8.43 8.43 0 0 0 386.134 46.719 A 6.776 6.776 0 0 0 383.127 46 A 11.923 11.923 0 0 0 378.809 46.829 A 16.001 16.001 0 0 0 375.577 48.55 A 26.208 26.208 0 0 0 372.863 50.674 A 30.829 30.829 0 0 0 368.777 55.15 Q 365.727 59.2 363.877 63.8 A 27.705 27.705 0 0 0 362.612 67.729 A 20.622 20.622 0 0 0 362.027 72.5 A 15.717 15.717 0 0 0 362.033 72.945 Q 362.076 74.482 362.424 75.761 A 7.63 7.63 0 0 0 364.977 79.8 Q 367.927 82.2 371.627 82.2 A 17.204 17.204 0 0 0 373.967 82.046 A 13.373 13.373 0 0 0 378.977 80.35 Q 382.127 78.5 384.377 75.65 Q 386.627 72.8 388.277 69.5 Q 389.927 66.2 391.227 63.4 A 1.262 1.262 0 0 0 391.224 63.32 Q 391.183 62.673 390.461 62.537 A 2.352 2.352 0 0 0 390.027 62.5 Z M 97.181 81.486 A 8.962 8.962 0 0 0 99.627 81.8 Q 103.727 81.8 107.577 78.65 A 28.018 28.018 0 0 0 109.464 76.957 A 31.084 31.084 0 0 0 114.227 70.9 A 5.124 5.124 0 0 0 116.259 71.977 A 6.683 6.683 0 0 0 118.027 72.2 A 12.739 12.739 0 0 0 118.362 72.205 Q 119.171 72.205 119.918 72.099 A 8.186 8.186 0 0 0 124.277 70.15 Q 125.923 68.706 127.321 66.155 A 27.901 27.901 0 0 0 128.627 63.4 A 1.262 1.262 0 0 0 128.624 63.32 Q 128.583 62.673 127.861 62.537 A 2.352 2.352 0 0 0 127.427 62.5 Q 127.512 62.244 128.108 61.039 A 118.673 118.673 0 0 1 128.327 60.6 L 130.227 56.8 A 497.092 497.092 0 0 1 132.113 53.065 A 450.024 450.024 0 0 1 132.377 52.55 Q 133.427 50.5 134.027 49.4 Q 135.079 47.471 137.208 47.233 A 5.582 5.582 0 0 1 137.827 47.2 L 144.027 47.2 Q 142.327 48.5 140.977 50.05 Q 139.627 51.6 137.627 55.7 L 136.927 57.1 Q 136.227 58.5 135.177 60.65 Q 134.127 62.8 133.077 65 Q 132.033 67.187 131.335 68.682 A 208.92 208.92 0 0 0 131.327 68.7 A 46.378 46.378 0 0 0 130.634 70.261 Q 129.908 71.99 129.627 73.15 Q 129.227 74.8 129.227 76.2 Q 129.227 79.5 131.427 79.5 A 3.909 3.909 0 0 0 133.024 79.119 Q 134.375 78.513 135.973 76.939 A 24.145 24.145 0 0 0 137.227 75.6 Q 140.027 72.3 142.727 67.7 Q 145.427 63.1 147.877 58.2 A 1154.438 1154.438 0 0 0 150.053 53.826 Q 151.217 51.472 152.227 49.4 A 3.731 3.731 0 0 1 154.87 47.329 A 5.769 5.769 0 0 1 156.127 47.2 L 161.627 47.2 Q 159.427 49 157.177 52.6 Q 155.63 55.075 153.87 58.495 A 142.918 142.918 0 0 0 152.227 61.8 Q 151.562 63.225 150.535 65.373 A 803.387 803.387 0 0 1 150.427 65.6 A 40.012 40.012 0 0 0 148.693 69.855 A 44.598 44.598 0 0 0 148.477 70.5 Q 147.627 73.1 147.627 75.7 Q 147.627 79.129 150.026 79.199 A 3.465 3.465 0 0 0 150.127 79.2 A 5.509 5.509 0 0 0 153.05 78.308 Q 154.803 77.226 156.5 74.827 A 22.208 22.208 0 0 0 156.727 74.5 A 52.095 52.095 0 0 0 159.31 70.252 Q 161.186 66.834 163.027 62.5 A 10.078 10.078 0 0 1 163.304 62.504 Q 163.845 62.519 163.972 62.597 A 0.155 0.155 0 0 1 163.977 62.6 Q 164.127 62.7 164.227 63.4 Q 163.127 66.1 161.577 69.25 Q 160.027 72.4 158.077 75.3 Q 156.127 78.2 153.777 80 A 8.67 8.67 0 0 1 150.827 81.503 A 8.14 8.14 0 0 1 148.627 81.8 Q 146.127 81.8 144.527 79.95 A 6.07 6.07 0 0 1 143.333 77.733 Q 142.927 76.413 142.927 74.7 Q 142.927 72 143.927 68.9 A 59.81 59.81 0 0 1 140.834 73.775 A 67.139 67.139 0 0 1 140.027 74.9 A 27.777 27.777 0 0 1 137.531 77.867 A 21.831 21.831 0 0 1 135.327 79.85 Q 133.096 81.59 130.865 81.777 A 6.43 6.43 0 0 1 130.327 81.8 A 6.097 6.097 0 0 1 129.438 81.73 Q 128.992 81.664 128.491 81.536 A 13.531 13.531 0 0 1 127.677 81.3 A 5.773 5.773 0 0 1 125.28 79.784 A 7.056 7.056 0 0 1 124.977 79.45 A 4.242 4.242 0 0 1 124.211 78.071 Q 123.995 77.447 123.9 76.68 A 10.473 10.473 0 0 1 123.827 75.4 Q 123.827 73.427 124.805 70.994 A 21.569 21.569 0 0 1 125.527 69.4 L 128.527 63.4 Q 127.54 63.4 127.438 62.677 A 1.265 1.265 0 0 1 127.427 62.5 A 39.101 39.101 0 0 1 127.001 63.494 Q 125.9 65.962 124.767 67.502 A 9.253 9.253 0 0 1 123.527 68.9 Q 121.527 70.7 118.727 70.7 A 8.395 8.395 0 0 1 118.354 70.692 Q 117.561 70.657 116.897 70.469 A 4.215 4.215 0 0 1 115.027 69.4 Q 116.727 66.2 117.727 62.9 A 25.078 25.078 0 0 0 118.306 60.617 A 20.176 20.176 0 0 0 118.727 56.6 A 18.637 18.637 0 0 0 118.724 56.313 Q 118.699 54.63 118.367 53.182 A 10.457 10.457 0 0 0 116.777 49.5 A 6.218 6.218 0 0 0 113.133 46.987 A 9.452 9.452 0 0 0 110.727 46.7 A 10.694 10.694 0 0 0 106.672 47.529 A 15.067 15.067 0 0 0 103.877 49.05 A 24.016 24.016 0 0 0 101.123 51.245 A 29.096 29.096 0 0 0 97.577 55.2 Q 94.727 59 93.127 63.6 A 27.884 27.884 0 0 0 92.304 66.324 A 22.489 22.489 0 0 0 91.627 71.7 A 15.642 15.642 0 0 0 91.857 74.44 A 11.573 11.573 0 0 0 93.577 78.85 A 6.222 6.222 0 0 0 97.181 81.486 Z M 153.427 82.6 Q 157.027 75.3 160.327 68.15 Q 163.627 61 167.127 54.5 Q 169.127 50.9 170.527 49.45 A 4.677 4.677 0 0 1 173.363 48.055 A 6.537 6.537 0 0 1 174.227 48 A 5.808 5.808 0 0 1 175.239 48.093 A 7.369 7.369 0 0 1 175.927 48.25 Q 176.827 48.5 177.727 48.5 Q 178.234 48.5 178.527 48.429 A 1.265 1.265 0 0 0 178.627 48.4 Q 177.227 49.2 174.977 52.35 Q 172.727 55.5 170.427 59.6 Q 168.127 63.7 166.327 67.3 Q 168.227 65 170.327 62.7 Q 172.427 60.4 174.927 58.3 A 47.288 47.288 0 0 1 177.385 56.298 Q 178.708 55.29 180.236 54.248 A 78.663 78.663 0 0 1 180.677 53.95 A 53.303 53.303 0 0 1 184.793 51.438 A 43.682 43.682 0 0 1 187.227 50.2 A 24.759 24.759 0 0 1 188.924 49.475 Q 190.6 48.838 191.821 48.724 A 5.491 5.491 0 0 1 192.327 48.7 A 7.84 7.84 0 0 1 192.652 48.706 Q 192.963 48.719 193.167 48.759 A 1.3 1.3 0 0 1 193.327 48.8 L 192.227 50.75 Q 191.243 52.494 189.819 55.199 A 342.419 342.419 0 0 0 189.477 55.85 Q 187.827 59 186.127 62.55 A 148.79 148.79 0 0 0 183.955 67.29 A 125.653 125.653 0 0 0 183.077 69.35 Q 182.191 71.483 181.714 73.164 A 17.507 17.507 0 0 0 181.327 74.8 Q 181.027 76.1 181.027 77.2 Q 181.027 78.403 181.366 78.984 A 1.179 1.179 0 0 0 181.627 79.3 A 2.255 2.255 0 0 0 182.201 79.655 A 1.867 1.867 0 0 0 182.927 79.8 A 4.79 4.79 0 0 0 184.85 79.376 Q 185.826 78.951 186.827 78.1 Q 188.795 76.427 190.619 73.833 A 31.136 31.136 0 0 0 190.677 73.75 Q 192.527 71.1 194.127 68.1 Q 195.727 65.1 196.827 62.5 A 2.352 2.352 0 0 1 197.261 62.537 Q 197.983 62.673 198.024 63.32 A 1.262 1.262 0 0 1 198.027 63.4 Q 196.962 66.013 195.382 69.141 A 108.975 108.975 0 0 1 195.277 69.35 Q 193.627 72.6 191.577 75.5 A 23.341 23.341 0 0 1 188.911 78.663 A 19.462 19.462 0 0 1 187.027 80.3 A 9.438 9.438 0 0 1 184.258 81.783 A 8.38 8.38 0 0 1 181.627 82.2 Q 179.756 82.2 177.755 80.976 A 11.664 11.664 0 0 1 177.477 80.8 Q 175.327 79.4 175.327 75.6 Q 175.327 74.5 175.527 73.25 Q 175.72 72.039 176.195 70.594 A 24.082 24.082 0 0 1 176.227 70.5 Q 177.027 68.5 178.127 66.2 Q 179.227 63.9 181.727 59.9 Q 182.273 59.041 182.484 58.487 A 2.547 2.547 0 0 0 182.577 58.2 Q 182.681 57.785 182.712 57.465 A 2.674 2.674 0 0 0 182.727 57.2 Q 182.727 56 181.627 56 A 2.407 2.407 0 0 0 181.062 56.077 Q 180.241 56.277 178.977 57 A 12.819 12.819 0 0 0 177.804 57.769 Q 176.417 58.779 174.627 60.5 A 39.996 39.996 0 0 0 172.971 62.195 Q 171.111 64.208 168.829 67.106 A 126.832 126.832 0 0 0 168.677 67.3 Q 165.56 71.275 161.587 78.676 A 173.875 173.875 0 0 0 160.727 80.3 A 4.826 4.826 0 0 1 160.37 80.871 Q 159.916 81.489 159.404 81.651 A 1.228 1.228 0 0 1 159.177 81.7 Q 158.327 81.8 156.827 81.9 A 45.504 45.504 0 0 1 155.499 82.014 A 38.609 38.609 0 0 1 154.927 82.05 A 2.896 2.896 0 0 0 154.179 82.186 A 2.274 2.274 0 0 0 153.427 82.6 Z M 296.927 82.8 A 35.07 35.07 0 0 0 303.728 82.165 A 28.893 28.893 0 0 0 308.227 80.9 Q 313.327 79 317.077 75.9 A 25.292 25.292 0 0 0 320.909 72 A 21.221 21.221 0 0 0 322.877 69 A 17.989 17.989 0 0 0 324.382 65.342 A 14.115 14.115 0 0 0 324.927 61.5 A 11.904 11.904 0 0 0 323.487 55.875 A 14.855 14.855 0 0 0 322.827 54.75 Q 320.727 51.5 316.227 49.3 Q 310.427 46.4 306.027 45.25 A 110.322 110.322 0 0 1 303.452 44.546 Q 300.989 43.838 299.268 43.192 A 31.993 31.993 0 0 1 299.027 43.1 Q 298.027 42.6 297.727 42.4 Q 297.485 42.239 297.438 42.078 A 0.277 0.277 0 0 1 297.427 42 A 1.695 1.695 0 0 1 298.062 40.66 A 2.69 2.69 0 0 1 298.427 40.4 A 4.214 4.214 0 0 1 300.172 39.829 A 5.241 5.241 0 0 1 300.727 39.8 A 30.471 30.471 0 0 1 303.207 39.906 A 38.057 38.057 0 0 1 305.027 40.1 A 35.949 35.949 0 0 0 308.331 40.371 A 42.695 42.695 0 0 0 309.927 40.4 A 27.341 27.341 0 0 0 315.27 39.902 A 20.142 20.142 0 0 0 321.127 37.8 Q 325.827 35.2 328.377 31.3 A 17.312 17.312 0 0 0 330.051 28.088 A 12.358 12.358 0 0 0 330.927 23.6 A 9.13 9.13 0 0 0 328.607 17.522 A 13.318 13.318 0 0 0 327.127 16.05 A 15.842 15.842 0 0 0 324.499 14.273 Q 321.526 12.629 316.77 11.171 A 83.215 83.215 0 0 0 313.327 10.2 A 172.149 172.149 0 0 0 307.389 18.976 A 215.582 215.582 0 0 0 303.327 25.65 Q 298.327 34.2 293.327 42.95 A 333.526 333.526 0 0 1 285.77 55.541 A 296.467 296.467 0 0 1 283.227 59.5 A 124.118 124.118 0 0 1 278.129 66.747 A 90.895 90.895 0 0 1 273.027 72.9 A 71.212 71.212 0 0 1 272.458 73.509 Q 271.841 74.163 271.388 74.601 A 16.617 16.617 0 0 1 271.127 74.85 A 224.271 224.271 0 0 1 270.745 75.203 Q 270.32 75.596 269.762 76.109 A 742.634 742.634 0 0 1 269.227 76.6 A 90.194 90.194 0 0 0 277.195 79.471 A 110.382 110.382 0 0 0 282.427 80.95 Q 289.627 82.8 296.927 82.8 Z M 219.727 81.8 Q 216.327 81.8 214.727 79.5 Q 213.127 77.2 213.127 74.1 Q 213.127 73.2 213.227 72.25 A 10.367 10.367 0 0 1 213.505 70.735 A 11.907 11.907 0 0 1 213.627 70.3 A 117.119 117.119 0 0 1 212.114 72.612 Q 211.305 73.82 210.384 75.14 A 201.128 201.128 0 0 1 210.377 75.15 A 23.277 23.277 0 0 1 206.468 79.504 A 21.781 21.781 0 0 1 206.177 79.75 A 8.422 8.422 0 0 1 203.317 81.34 A 7.92 7.92 0 0 1 200.927 81.7 A 6.786 6.786 0 0 1 199.722 81.585 Q 198.905 81.438 197.977 81.1 A 5.687 5.687 0 0 1 196.028 79.881 A 7.809 7.809 0 0 1 195.077 78.8 Q 193.827 77.1 193.827 73.8 A 22.051 22.051 0 0 1 194.462 68.661 A 29.321 29.321 0 0 1 195.727 64.7 Q 197.627 59.9 200.927 55.65 A 30.235 30.235 0 0 1 206.259 50.271 A 27.217 27.217 0 0 1 208.427 48.75 Q 212.627 46.1 217.127 46.1 Q 220.727 46.1 223.927 48 Q 225.427 45.2 227.127 41.75 Q 228.827 38.3 230.527 34.9 Q 232.227 31.5 233.527 28.65 Q 234.827 25.8 235.527 24.3 A 26.361 26.361 0 0 1 236.244 22.754 Q 236.981 21.304 237.68 20.499 A 3.965 3.965 0 0 1 238.377 19.85 Q 239.727 18.9 241.627 18.9 Q 242.692 18.9 243.993 19.135 A 18.654 18.654 0 0 1 244.077 19.15 A 10.435 10.435 0 0 0 245.98 19.329 A 9.735 9.735 0 0 0 246.727 19.3 A 3.355 3.355 0 0 0 246.493 19.568 Q 245.937 20.265 244.653 22.249 A 136.538 136.538 0 0 0 244.427 22.6 Q 242.716 25.261 240.284 29.411 A 365.224 365.224 0 0 0 240.027 29.85 Q 237.427 34.3 234.477 39.6 Q 231.527 44.9 228.677 50.45 A 359.317 359.317 0 0 0 224.812 58.196 A 308.176 308.176 0 0 0 223.427 61.1 Q 221.589 65.005 220.338 68.206 A 72.409 72.409 0 0 0 219.627 70.1 Q 218.227 74 218.227 76 A 4.74 4.74 0 0 0 218.359 77.142 A 3.746 3.746 0 0 0 218.827 78.25 A 1.951 1.951 0 0 0 220.093 79.123 A 3.257 3.257 0 0 0 220.827 79.2 A 4.31 4.31 0 0 0 222.63 78.783 Q 223.664 78.309 224.727 77.3 Q 226.695 75.43 228.519 72.639 A 35.687 35.687 0 0 0 228.577 72.55 A 74.331 74.331 0 0 0 231.127 68.331 A 65.052 65.052 0 0 0 231.877 66.95 Q 233.327 64.2 234.027 62.5 A 2.352 2.352 0 0 1 234.461 62.537 Q 235.183 62.673 235.224 63.32 A 1.262 1.262 0 0 1 235.227 63.4 Q 234.327 65.5 232.827 68.6 Q 231.327 71.7 229.327 74.7 Q 227.327 77.7 224.877 79.75 A 9.659 9.659 0 0 1 222.845 81.077 A 7.165 7.165 0 0 1 219.727 81.8 Z M 338.627 62.2 Q 339.427 60.5 340.727 56.75 Q 342.027 53 343.427 48.4 A 77.665 77.665 0 0 0 344.842 43.114 A 62.447 62.447 0 0 0 345.527 39.7 A 6.594 6.594 0 0 1 345.763 38.783 Q 345.92 38.324 346.136 37.966 A 2.863 2.863 0 0 1 346.627 37.35 A 3.165 3.165 0 0 1 347.234 36.897 A 2.196 2.196 0 0 1 348.327 36.6 A 2.749 2.749 0 0 1 349.874 37.088 Q 350.259 37.345 350.623 37.736 A 5.492 5.492 0 0 1 350.727 37.85 Q 351.655 38.905 351.8 40.707 A 8.645 8.645 0 0 1 351.827 41.4 A 7.918 7.918 0 0 1 351.391 44.066 A 7.023 7.023 0 0 1 350.177 46.2 A 21.6 21.6 0 0 1 347.821 48.622 A 26.999 26.999 0 0 1 346.127 50 Q 347.127 50.1 348.227 50.15 Q 349.327 50.2 350.627 50.2 Q 355.327 50.2 359.927 49.6 A 6.806 6.806 0 0 1 360.014 49.881 Q 360.094 50.16 360.117 50.354 A 1.235 1.235 0 0 1 360.127 50.5 Q 360.127 51.773 359.407 53.718 A 19.73 19.73 0 0 1 359.377 53.8 Q 358.627 55.8 357.827 57.4 A 23.217 23.217 0 0 1 357.595 57.902 Q 357.251 58.628 356.632 59.853 A 220.39 220.39 0 0 1 356.227 60.65 Q 355.027 63 353.627 65.95 A 53.261 53.261 0 0 0 351.78 70.319 A 47.049 47.049 0 0 0 351.277 71.75 A 23.491 23.491 0 0 0 350.736 73.609 Q 350.512 74.527 350.411 75.335 A 10.187 10.187 0 0 0 350.327 76.6 A 4.956 4.956 0 0 0 350.409 77.549 Q 350.733 79.2 352.327 79.2 Q 354.047 79.2 356.996 75.553 A 37.03 37.03 0 0 0 357.627 74.75 A 39.615 39.615 0 0 0 360.07 71.119 Q 361.159 69.308 362.249 67.153 A 90.51 90.51 0 0 0 364.427 62.5 A 2.352 2.352 0 0 1 364.861 62.537 Q 365.583 62.673 365.624 63.32 A 1.262 1.262 0 0 1 365.627 63.4 Q 364.527 66.1 362.877 69.3 Q 361.227 72.5 359.227 75.35 A 25.588 25.588 0 0 1 357.017 78.096 A 19.939 19.939 0 0 1 354.927 80.05 A 9.149 9.149 0 0 1 352.988 81.265 A 6.842 6.842 0 0 1 350.127 81.9 A 5.087 5.087 0 0 1 347.989 81.41 Q 347.288 81.088 346.586 80.555 A 9.612 9.612 0 0 1 346.327 80.35 A 4.745 4.745 0 0 1 344.858 78.193 Q 344.575 77.389 344.478 76.394 A 11.246 11.246 0 0 1 344.427 75.3 Q 344.427 72.2 345.627 69.25 A 45.329 45.329 0 0 1 348.14 64.026 A 41.646 41.646 0 0 1 348.327 63.7 Q 349.616 61.466 350.683 59.674 A 224.462 224.462 0 0 1 351.027 59.1 Q 352.02 57.444 352.191 56.337 A 2.867 2.867 0 0 0 352.227 55.9 Q 352.227 54.206 350.233 53.397 A 6.297 6.297 0 0 0 349.977 53.3 A 13.098 13.098 0 0 0 348.099 52.799 Q 347.13 52.61 345.994 52.507 A 30.147 30.147 0 0 0 344.127 52.4 Q 342.359 56.917 341.46 59.12 A 155.727 155.727 0 0 1 341.427 59.2 Q 340.527 61.4 339.727 63.4 Q 338.127 63.4 338.627 62.2 Z M 201.627 78.8 A 3.351 3.351 0 0 0 202.621 78.633 Q 203.518 78.353 204.627 77.604 A 14.756 14.756 0 0 0 205.127 77.25 A 13.52 13.52 0 0 0 206.606 75.966 Q 207.329 75.249 208.084 74.332 A 34.333 34.333 0 0 0 209.627 72.3 Q 211.552 69.55 213.855 65.855 A 246.59 246.59 0 0 0 216.027 62.3 A 239.728 239.728 0 0 0 221.37 52.906 A 269.077 269.077 0 0 0 223.127 49.6 A 5.138 5.138 0 0 0 222.02 48.869 A 4.661 4.661 0 0 0 221.627 48.7 A 3.912 3.912 0 0 0 221.006 48.529 Q 220.345 48.4 219.427 48.4 Q 217.66 48.4 215.627 49.551 A 14.636 14.636 0 0 0 214.377 50.35 Q 211.648 52.285 208.92 55.352 A 45.017 45.017 0 0 0 208.877 55.4 Q 206.127 58.5 203.877 62.1 A 49.821 49.821 0 0 0 201.631 66.07 A 39.071 39.071 0 0 0 200.277 69.05 Q 199.328 71.403 199.046 73.288 A 10.231 10.231 0 0 0 198.927 74.8 A 8.769 8.769 0 0 0 199.03 76.21 Q 199.437 78.697 201.456 78.796 A 3.475 3.475 0 0 0 201.627 78.8 Z M 101.027 79.6 A 5.936 5.936 0 0 0 103.542 79.017 Q 104.584 78.534 105.627 77.65 Q 107.927 75.7 109.827 73.2 A 36.121 36.121 0 0 0 110.907 71.706 Q 111.977 70.138 112.527 68.9 Q 110.927 66 110.677 64.55 Q 110.427 63.1 110.427 62.4 A 5.776 5.776 0 0 1 110.529 61.275 Q 110.747 60.18 111.427 59.5 A 4.508 4.508 0 0 1 112.036 58.984 Q 112.731 58.5 113.427 58.5 Q 114.827 58.5 115.827 59.7 A 30.76 30.76 0 0 0 116.02 58.51 A 24.277 24.277 0 0 0 116.127 57.65 A 17.771 17.771 0 0 0 116.226 55.913 A 16.278 16.278 0 0 0 116.227 55.8 Q 116.227 53.2 115.277 51.55 Q 114.327 49.9 112.327 49.9 A 5.615 5.615 0 0 0 110.254 50.319 Q 109.473 50.628 108.668 51.163 A 11.864 11.864 0 0 0 107.927 51.7 A 18.113 18.113 0 0 0 105.621 53.875 Q 104.57 55.047 103.577 56.5 Q 101.527 59.5 100.027 63.2 A 47.158 47.158 0 0 0 98.784 66.486 A 36.55 36.55 0 0 0 98.027 69.05 A 24.283 24.283 0 0 0 97.513 71.609 A 17.675 17.675 0 0 0 97.327 74.1 A 11.295 11.295 0 0 0 97.433 75.699 Q 97.55 76.517 97.797 77.192 A 5.304 5.304 0 0 0 98.227 78.1 A 2.919 2.919 0 0 0 100.323 79.543 A 4.155 4.155 0 0 0 101.027 79.6 Z M 251.391 82.045 A 23.239 23.239 0 0 0 254.177 81.25 Q 258.827 79.6 262.827 76.6 A 392.673 392.673 0 0 1 261.545 75.956 Q 259.502 74.925 256.727 73.5 Q 253.027 71.6 249.227 70.15 A 27.247 27.247 0 0 0 246.625 69.295 Q 244.42 68.7 242.627 68.7 A 11.219 11.219 0 0 0 240.49 68.891 Q 239.251 69.131 238.293 69.676 A 5.666 5.666 0 0 0 237.027 70.65 A 6.966 6.966 0 0 0 235.699 72.522 A 5.94 5.94 0 0 0 235.127 75.1 A 6.373 6.373 0 0 0 236.03 78.329 A 9.449 9.449 0 0 0 237.327 80.05 A 7.377 7.377 0 0 0 240.259 81.931 Q 241.847 82.506 243.927 82.6 Q 247.898 82.813 251.391 82.045 Z M 369.827 64.6 Q 371.227 64.6 374.527 63.55 Q 377.827 62.5 380.527 60.2 A 18.501 18.501 0 0 0 383.191 57.31 A 15.566 15.566 0 0 0 384.527 55.15 A 17.813 17.813 0 0 0 385.261 53.524 Q 385.927 51.81 385.927 50.5 A 4.456 4.456 0 0 0 385.863 49.711 Q 385.608 48.3 384.327 48.3 Q 383.127 48.3 381.027 49.9 A 17.151 17.151 0 0 0 379.692 51.044 Q 378.401 52.257 376.821 54.107 A 69.25 69.25 0 0 0 375.827 55.3 A 50.388 50.388 0 0 0 372.655 59.806 A 55.924 55.924 0 0 0 372.227 60.5 Q 370.527 63.3 369.827 64.6 Z" vector-effect="non-scaling-stroke"/></g></svg>